<?xml version="1.0" standalone="no"?>
<!DOCTYPE svg PUBLIC "-//W3C//DTD SVG 20010904//EN"
 "http://www.w3.org/TR/2001/REC-SVG-20010904/DTD/svg10.dtd">
<svg version="1.0" xmlns="http://www.w3.org/2000/svg"
 width="70.000000pt" height="70.000000pt" viewBox="0 0 70.000000 70.000000"
 preserveAspectRatio="xMidYMid meet">
<metadata>
Created by potrace 1.14, written by Peter Selinger 2001-2017
</metadata>
<g transform="translate(0.000000,70.000000) scale(0.100000,-0.100000)"
fill="#000000" stroke="none">
<path d="M275 692 c-46 -9 -127 -57 -169 -98 -36 -36 -77 -99 -81 -124 0 -3
-7 -23 -14 -44 -19 -54 -8 -150 24 -218 77 -163 263 -246 420 -187 103 38 172
101 214 194 20 42 23 61 25 135 4 111 -49 213 -149 288 -14 11 -85 44 -99 46
-6 1 -15 4 -21 8 -11 6 -119 7 -150 0z"/>
</g>
</svg>
